<?xml version="1.0" encoding="UTF-8" standalone="no"?>
<!-- Created with Inkscape (http://www.inkscape.org/) -->

<svg
   width="90.242996mm"
   height="87.388mm"
   viewBox="0 0 90.242996 87.388001"
   version="1.1"
   id="svg1"
   xml:space="preserve"
   sodipodi:docname="donate-icn.svg"
   inkscape:version="1.4.3 (0d15f75, 2025-12-25)"
   xmlns:inkscape="http://www.inkscape.org/namespaces/inkscape"
   xmlns:sodipodi="http://sodipodi.sourceforge.net/DTD/sodipodi-0.dtd"
   xmlns="http://www.w3.org/2000/svg"
   xmlns:svg="http://www.w3.org/2000/svg"><sodipodi:namedview
     id="namedview1"
     pagecolor="#ffffff"
     bordercolor="#666666"
     borderopacity="1.0"
     inkscape:showpageshadow="2"
     inkscape:pageopacity="0.0"
     inkscape:pagecheckerboard="0"
     inkscape:deskcolor="#d1d1d1"
     inkscape:document-units="mm"
     inkscape:zoom="0.68862942"
     inkscape:cx="397.16572"
     inkscape:cy="328.91421"
     inkscape:window-width="1920"
     inkscape:window-height="991"
     inkscape:window-x="-9"
     inkscape:window-y="-9"
     inkscape:window-maximized="1"
     inkscape:current-layer="svg1" /><defs
     id="defs1" /><g
     id="layer1"><g
       id="g35"
       transform="translate(-263.5425,-275.60603)"><path
         style="fill:#c8c8c8"
         d="m 304.51044,362.70784 c -21.75785,-0.91932 -22.68104,-3.82219 -1.41111,-4.43706 25.54029,-0.73831 42.14064,3.34252 18.17218,4.46724 -7.38524,0.34655 -7.86547,0.34568 -16.76107,-0.0302 z m 22.37239,-1.00744 c 2.97999,-0.66333 2.54209,-1.3515 -1.28882,-2.02545 -10.13582,-1.78311 -36.23996,-1.03763 -33.0678,0.94435 2.43949,1.52421 28.65948,2.34927 34.35662,1.0811 z"
         id="path23" /><path
         style="fill:#b7b7b7"
         d="m 299.92711,361.99737 c -7.08706,-0.66668 -9.55467,-1.66433 -6.11615,-2.47274 7.92511,-1.86322 37.11816,-0.5218 34.98863,1.60773 -0.93191,0.93191 -21.58403,1.55064 -28.87248,0.86501 z m 23.41104,-0.67496 c 3.50061,-1.06842 -0.8247,-1.78653 -12.13507,-2.01472 -11.71157,-0.23628 -17.66404,0.50514 -13.36002,1.6641 3.85438,1.03787 22.40735,1.29302 25.49509,0.35062 z"
         id="path22" /><path
         style="fill:#a7a7a7"
         d="m 302.38585,361.67504 c -3.72971,-0.35924 -6.20691,-0.98906 -5.73728,-1.45869 1.53141,-1.53141 26.16079,-1.20462 27.73338,0.36797 1.04141,1.04142 -14.50454,1.81229 -21.9961,1.09072 z m 17.26615,-0.62236 c 2.25716,-0.86423 -3.90718,-1.62098 -11.73671,-1.44083 -8.13931,0.18728 -9.6509,0.98427 -3.26317,1.72053 3.12767,0.36051 13.85001,0.16056 14.99988,-0.2797 z"
         id="path21" /><path
         style="fill:#969696"
         d="m 304.65212,361.33238 c -6.38773,-0.73626 -4.87614,-1.53325 3.26317,-1.72053 7.82953,-0.18015 13.99387,0.5766 11.73671,1.44083 -1.14987,0.44026 -11.87221,0.64021 -14.99988,0.2797 z m 11.08243,-0.54053 c 0.45578,-0.45579 -0.54981,-0.66257 -3.9594,-0.81422 -3.67498,-0.16344 -7.17987,0.12872 -6.74623,0.56236 0.63837,0.63838 10.0966,0.86089 10.70563,0.25186 z M 331.6364,334.4072 c 0.67722,-0.86284 0.35031,-1.06572 -2.17931,-1.35249 -1.20587,-0.13671 -4.44374,-0.50662 -7.19527,-0.82202 -5.55071,-0.63628 -9.79896,-0.28116 -13.87083,1.15951 -3.26356,1.15468 -3.41562,1.19416 -2.46944,0.64126 3.7197,-2.17363 10.42715,-3.04409 16.75694,-2.17462 2.52236,0.34647 5.85611,0.74127 7.40833,0.87734 1.55223,0.13606 2.62877,0.27197 2.39233,0.30201 -0.23645,0.03 -0.34829,0.26731 -0.24853,0.52727 0.0998,0.25995 -0.10367,0.69651 -0.45205,0.97013 -0.57948,0.45513 -0.59158,0.4442 -0.14217,-0.12839 z"
         id="path20" /><path
         style="fill:#878787"
         d="m 307.08972,361.01668 c -4.28981,-0.57727 -1.05605,-1.2944 4.68543,-1.03905 3.40959,0.15165 4.41518,0.35843 3.9594,0.81422 -0.31557,0.31557 -6.7307,0.48241 -8.64483,0.22483 z"
         id="path19" /><g
         id="g34"><path
           style="fill:#000000"
           d="m 309.44933,345.27704 c -1.64924,-0.27117 -6.72924,-1.4493 -11.28889,-2.61806 -15.26118,-3.91184 -19.84073,-4.14227 -25.00131,-1.25797 -0.85024,0.47521 -1.60343,0.86402 -1.67375,0.86402 -2.86381,0 -9.58914,-15.13184 -7.57133,-17.03533 6.40375,-6.04098 10.84174,-7.81984 20.84083,-8.35353 3.58952,-0.19159 7.47889,-0.5875 8.64306,-0.87979 5.35502,-1.34451 8.68811,-0.55306 14.91469,3.54153 6.69338,4.40154 7.4336,4.60308 18.59919,5.06396 8.11664,0.33502 11.88728,1.02659 13.2805,2.43575 3.37112,3.40968 -3.72649,5.89221 -12.75133,4.46002 -10.08047,-1.59971 -21.70939,-0.28744 -23.26847,2.62574 -0.89448,1.67136 0.29311,1.74063 4.39486,0.25635 4.76433,-1.72405 8.40258,-1.97933 15.40166,-1.08068 7.49369,0.96215 7.31076,0.29239 1.5618,5.7181 -7.44152,7.02312 -8.62886,7.4853 -16.08151,6.25989 z m 32.27143,-19.60064 c -0.54228,-0.56601 -1.83395,-1.38059 -2.87037,-1.81016 -2.35117,-0.97451 -2.34429,-1.08816 0.12667,-2.09105 1.10609,-0.44893 3.20953,-1.71569 4.67431,-2.81502 4.24946,-3.18926 6.75703,-3.92524 9.34941,-2.74407 1.25875,0.57353 1.20456,0.67912 -1.6591,3.23266 -7.45547,6.64811 -8.54341,7.35233 -9.62092,6.22764 z m -12.86866,-3.31022 c 0,-0.0788 0.75543,-0.68602 1.67873,-1.34934 0.9233,-0.66333 3.15095,-2.50243 4.95034,-4.0869 1.79938,-1.58447 3.7085,-3.10678 4.24249,-3.38292 1.02014,-0.52753 3.59233,-1.1163 3.59233,-0.82227 0,0.30615 -5.40601,4.33116 -7.69734,5.731 -1.22611,0.74907 -2.91734,1.96759 -3.7583,2.70783 -1.25341,1.1033 -3.00825,1.80482 -3.00825,1.2026 z m 13.11688,-5.68121 c 4.26069,-3.20368 6.77607,-4.3116 8.78644,-3.87005 1.44871,0.31819 1.09368,0.56171 -1.03335,0.70878 -2.04235,0.14122 -4.03196,1.07351 -6.75886,3.16704 -1.06715,0.81929 -2.4959,1.82808 -3.175,2.24175 -2.55326,1.55531 -1.68047,0.65581 2.18077,-2.24752 z m -29.52104,-5.78747 c -13.22125,-12.22133 -16.21267,-16.48899 -16.22289,-23.14405 -0.0164,-10.69887 12.21151,-16.0593 20.19031,-8.85094 1.75588,1.58634 2.12195,1.58496 4.02489,-0.0151 8.39326,-7.05745 20.2918,-1.82879 20.19286,8.87347 -0.0623,6.73385 -3.45464,11.41601 -17.83776,24.6197 -4.96122,4.55439 -3.60583,4.74865 -10.34741,-1.48306 z"
           id="path18" /></g></g></g></svg>
